# xmcd
#
# Track frame offsets:
#	150
#	16061
#	32812
#	46440
#	61976
#	80879
#	100258
#	118206
#	138936
#	160249
#	179455
#	199021
#	211874
#	231823
#	254521
#	273903
#	291392
#	321167
#
# Disc length: 4297 seconds
#
# Revision: 2
# Processed by: cddbd v1.5.2PL0 Copyright (c) Steve Scherf et al.
# Submitted via: audiograbber 1.83.01
#
DISCID=0a10c712
DTITLE=Chartbuster 50 Greatest Hits of 2003 v1 - CB5001-01
DYEAR=2003
DGENRE=
TTITLE0=Wills, Mark - 19 Something
TTITLE1=Lonestar - My Front Porch Looking In 
TTITLE2=Clark, Terri - I Wanna Do It All
TTITLE3=McComas, Brian - 99.9% Sure (I've Never Been Here Before) 
TTITLE4=Brooks and Dunn - Red Dirt Road
TTITLE5=McBride, Martina - This One's For He Girls
TTITLE6=Walker, Clay - A Few Questions
TTITLE7=Bentley, Dierks - What Was I Thinking
TTITLE8=Austin, Sherrie - Streets Of Heaven
TTITLE9=Cagle, Chris - Chicks Dig It
TTITLE10=McBride, Martina - Concrete Angel
TTITLE11=Emerson Drive - Fall Into Me
TTITLE12=Urban, Keith - Who Wouldn't Want To Be Me
TTITLE13=Twain, Shania - Forever And Always
TTITLE14=Wills, Mark - And The Crowd Goes Wild
TTITLE15=Paisley, Brad - Celebrity
TTITLE16=Chesney, Kenny - Big Star
TTITLE17=NONE - Na
EXTD=This is correction to listing originally submitted.
EXTT0=
EXTT1=
EXTT2=
EXTT3=
EXTT4=
EXTT5=
EXTT6=
EXTT7=
EXTT8=
EXTT9=
EXTT10=
EXTT11=
EXTT12=
EXTT13=
EXTT14=
EXTT15=
EXTT16=
EXTT17=copy protection
PLAYORDER=
